<svg xmlns="http://www.w3.org/2000/svg" viewBox="0 0 64 64" width="64" height="64">
  <defs>
    <!-- 深色金屬底色漸層 -->
    <linearGradient id="bgGrad" x1="0" y1="0" x2="1" y2="1">
      <stop offset="0%" stop-color="#1a1c22"/>
      <stop offset="100%" stop-color="#0d0f14"/>
    </linearGradient>
    <!-- 閃電主體漸層：電光黃→橘 -->
    <linearGradient id="boltGrad" x1="0" y1="0" x2="0" y2="1">
      <stop offset="0%" stop-color="#ffe03a"/>
      <stop offset="55%" stop-color="#ff9500"/>
      <stop offset="100%" stop-color="#ff5500"/>
    </linearGradient>
    <!-- 閃電外圍光暈 -->
    <filter id="outerGlow" x="-40%" y="-40%" width="180%" height="180%">
      <feGaussianBlur in="SourceGraphic" stdDeviation="3" result="blur"/>
      <feColorMatrix in="blur" type="matrix"
        values="1 0.5 0 0 0
                0.6 0.3 0 0 0
                0 0   0 0 0
                0 0   0 0.7 0" result="colored"/>
      <feMerge>
        <feMergeNode in="colored"/>
        <feMergeNode in="SourceGraphic"/>
      </feMerge>
    </filter>
  </defs>

  <!-- 底板：圓角正方形 -->
  <rect width="64" height="64" rx="10" ry="10" fill="url(#bgGrad)"/>

  <!-- 工業風網格線（低調） -->
  <g stroke="#2a2e3a" stroke-width="0.6" opacity="0.7">
    <line x1="0"  y1="16" x2="64" y2="16"/>
    <line x1="0"  y1="32" x2="64" y2="32"/>
    <line x1="0"  y1="48" x2="64" y2="48"/>
    <line x1="16" y1="0"  x2="16" y2="64"/>
    <line x1="32" y1="0"  x2="32" y2="64"/>
    <line x1="48" y1="0"  x2="48" y2="64"/>
  </g>

  <!-- 左上角裝飾線（工業鉚釘感） -->
  <polyline points="4,14 4,4 14,4"
    fill="none" stroke="#3a3f4d" stroke-width="1.5" stroke-linecap="round"/>
  <!-- 右下角裝飾線 -->
  <polyline points="60,50 60,60 50,60"
    fill="none" stroke="#3a3f4d" stroke-width="1.5" stroke-linecap="round"/>

  <!-- 速度殘影（偏左、透明度低） -->
  <polygon
    points="35,5 21,33 29,33 22,59 45,27 36,27 44,5"
    fill="#ff8800" opacity="0.12"
    transform="translate(-5,0) scale(0.85) translate(3,4)"
  />

  <!-- 閃電主體（帶光暈） -->
  <polygon
    points="35,5 21,33 29,33 22,59 45,27 36,27 44,5"
    fill="url(#boltGrad)"
    filter="url(#outerGlow)"
  />

  <!-- 閃電高光（頂部白色反光） -->
  <polygon
    points="35,5 28,22 33,22 31,5"
    fill="white" opacity="0.35"
  />

  <!-- 底板金屬邊框 -->
  <rect width="64" height="64" rx="10" ry="10"
    fill="none" stroke="#3d4255" stroke-width="1.2"/>
</svg>
